<?xml version="1.0" standalone="yes"?>
<svg xmlns="http://www.w3.org/2000/svg" width="512" height="512">
<path style="fill:#ffffff; stroke:none;" d="M0 0L0 135L1 135L19.7531 97L28.213 83.0278L41 82L72 82L185 82L219 82L232.787 83.0278L242.247 99L262 138L0 138L0 512L512 512L512 147C489.671 156.296 473.824 165 449 165L449 211L430 211L430 128C452.897 128 473.978 128.731 495 118.247C499.517 115.994 508.014 113.6 510.972 109.363C515.06 103.508 512 87.0467 512 80L512 0L0 0z"/>
<path style="fill:#010101; stroke:none;" d="M0 138L262 138C256.314 124.343 248.864 111.233 242.247 98C240.083 93.6717 237.831 85.7206 233.61 83.0278C230.174 80.8361 223.903 82 220 82L187 82L71 82L40 82C36.3279 82 30.6306 80.9608 27.3904 83.0278C23.3901 85.5796 21.2939 92.906 19.2469 97C12.9643 109.565 2.47006 124.143 0 138M312 128L312 211L331 211L331 165C348.725 165 362.984 162.761 379 154.753C383.155 152.676 391.415 150.341 393.397 145.787C397.314 136.783 394 119.822 394 110C382.825 113.219 373.166 120.612 362 124.112C345.779 129.195 328.768 128 312 128M430 128L430 211L449 211L449 165C466.725 165 480.984 162.761 497 154.753C501.155 152.676 509.415 150.341 511.397 145.787C515.314 136.783 512 119.822 512 110C500.453 113.326 490.602 121.126 479 124.561C463.141 129.256 446.326 128 430 128M12 155L12 428L86 428C86 403.694 80.2448 370.778 89.4529 348C103.642 312.9 150.594 311.641 169.37 343C182.775 365.388 176 402.841 176 428L249 428L249 155L12 155z"/>
<path style="fill:#ffffff; stroke:none;" d="M38.0154 165.653C32.0216 167.592 31.0718 173.47 31.0039 179C30.8524 191.329 31 203.67 31 216C31 221.249 29.9461 228.188 33.0895 232.775C36.3323 237.508 42.9672 236.998 48 237C62.2038 237.005 82.4662 240.716 95.9846 236.347C101.672 234.509 102.924 229.352 102.996 224C103.168 211.338 103 198.663 103 186C103 180.781 104.183 173.732 100.991 169.214C97.5567 164.354 91.2334 165 86 165C71.7973 164.999 51.5312 161.28 38.0154 165.653M166.004 165.533C160.711 166.838 158.521 170.816 158.093 176C157.008 189.157 158 202.797 158 216C158 221.249 156.946 228.188 160.09 232.775C163.332 237.508 169.967 236.998 175 237C189.25 237.005 209.416 240.679 222.995 236.347C229.731 234.199 229.99 228.021 230 222L230 184C230 179.095 231.078 172.348 227.486 168.394C223.449 163.95 216.384 165 211 165C197.023 165 179.583 162.186 166.004 165.533z"/>
<path style="fill:#010101; stroke:none;" d="M48 182L48 220L86 220L86 182L48 182M176 182L176 220L213 220L213 182L176 182M266 228L266 428L503 428L503 228L266 228z"/>
<path style="fill:#ffffff; stroke:none;" d="M309.094 247.858C303.375 250.395 304 256.784 304 262L304 299C304 303.726 302.741 310.746 305.742 314.775C309.205 319.424 315.867 318.998 321 319C334.34 319.005 357.949 323.539 369.956 317.427C375.661 314.523 375 308.484 375 303L375 266C375 261.296 376.262 254.327 373.106 250.394C369.608 246.034 362.933 247 358 247L325 247C320.183 247 313.591 245.864 309.094 247.858M400.044 247.858C394.399 250.292 394.027 256.684 394.001 262C393.941 274.333 394 286.667 394 299C394 304.081 393.194 310.58 396.564 314.856C400.195 319.462 406.749 318.998 412 319C425.546 319.005 448.606 323.418 460.906 317.347C466.565 314.554 466 308.373 466 303L466 266C466 261.01 467.161 254.274 463.566 250.228C459.745 245.927 453.161 247 448 247C434.774 247 412.192 242.621 400.044 247.858M37.0432 256.742C31.189 259.116 31.009 265.64 31 271L31 307C31 312.031 29.9955 318.497 32.858 322.945C36.2848 328.27 42.406 327.998 48 328C61.6705 328.005 84.4065 332.361 96.956 326.772C102.603 324.257 102.973 318.439 102.999 313C103.061 300.334 103 287.666 103 275C103 269.979 104.017 263.355 100.486 259.228C96.7733 254.89 90.0943 256 85 256C71.6051 256 49.4522 251.711 37.0432 256.742M165.015 256.653C159.452 258.453 158.152 263.749 158.015 269C157.684 281.648 158 294.347 158 307C158 312.333 157.022 319.363 160.564 323.856C164.195 328.462 170.749 327.998 176 328C190.036 328.005 209.603 331.52 222.985 327.196C229.596 325.06 229.99 318.975 230 313L230 276C230 271.139 231.191 264.324 228.258 260.109C224.772 255.098 218.331 256 213 256C198.797 256 178.532 252.279 165.015 256.653z"/>
<path style="fill:#010101; stroke:none;" d="M321 264L321 301L358 301L358 264L321 264M412 264L412 301L449 301L449 264L412 264M48 273L48 310L86 310L86 273L48 273M176 273L176 310L213 310L213 273L176 273M103 428L158 428L158 378C158 369.012 159.241 359.274 155.004 351C144.943 331.354 115.316 332.996 105.81 352C101.671 360.275 103 370.012 103 379L103 428z"/>
<path style="fill:#ffffff; stroke:none;" d="M309.044 338.742C303.206 341.121 304 347.826 304 353L304 390C304 394.699 302.725 401.779 305.742 405.772C309.103 410.219 316.131 409 321 409L354 409C358.797 409 365.4 410.143 369.906 408.258C375.657 405.851 375 399.131 375 394L375 357C375 352.235 376.231 345.363 373.106 341.344C369.638 336.882 362.969 338 358 338L325 338C320.157 338 313.607 336.883 309.044 338.742M400.044 338.742C394.373 341.049 394.026 347.769 394.001 353C393.941 365.333 394 377.667 394 390C394 395.123 393.239 401.492 396.703 405.772C400.255 410.161 406.999 409 412 409L445 409C449.796 409 456.426 410.152 460.895 408.142C466.442 405.647 465.998 399.09 466 394L466 357C466 352.135 467.101 345.499 463.991 341.344C460.626 336.85 453.914 338 449 338C435.355 338 412.675 333.604 400.044 338.742z"/>
<path style="fill:#010101; stroke:none;" d="M321 355L321 392L358 392L358 355L321 355M412 355L412 392L449 392L449 355L412 355z"/>
<path style="fill:#ffffff; stroke:none;" d="M131 374L131 391L148 391L148 374L131 374z"/>
</svg>
